# xmcd
#
# Track frame offsets:
#	150
#	12623
#	26893
#	42339
#	53591
#	68955
#	81836
#	95542
#	109030
#	124218
#	137242
#	153076
#	166437
#	180166
#	195630
#	210672
#	224117
#	240263
#	253039
#	268025
#
# Disc length: 3737 seconds
#
# Revision: 0
# Processed by: cddbd v1.5.2PL0 Copyright (c) Steve Scherf et al.
# Submitted via: EasyCDDAExtractor 16.0.6.1
#
DISCID=1f0e9714
DTITLE=Γαβαλάς Πάνος - Τραγούδια 45 στροφές-Γαβαλάς Πάνος 1
DYEAR=1996
DGENRE=Λαϊκή
TTITLE0=Γαβαλάς Πάνος-Κούρτη Ρία - Τα τελευταία μου φιλιά [1966, Π. Γαβαλά-Στ.
TTITLE0=Ζαφειρίου]
TTITLE1=Γαβαλάς Πάνος-Κούρτη Ρία - Τι μού 'χεις κάνει [1965, Γιάννη Καραμπεσίν
TTITLE1=η]
TTITLE2=Γαβαλάς Πάνος-Κούρτη Ρία - Μελαγχολία [1966, Π. Γαβαλά]
TTITLE3=Γαβαλάς Πάνος-Κούρτη Ρία - Πριν να σε γνωρίσω [1966, Β. Καραπατάκη-Α. 
TTITLE3=Αττικού]
TTITLE4=Γαβαλάς Πάνος-Κούρτη Ρία - Παρηγοριά μου [1966, Θάνου Σοφού]
TTITLE5=Γαβαλάς Πάνος-Κούρτη Ρία - Εσύ είσαι ένας άγγελος [1963, Α. Καλδάρα-Γ.
TTITLE5=Σαμολαδά]
TTITLE6=Γαβαλάς Πάνος-Κούρτη Ρία - Όταν μού λείπεις, σε ζητάω [1965, Γ. Λαύκα-
TTITLE6=Ν. Μουρκάκου]
TTITLE7=Γαβαλάς Πάνος-Κούρτη Ρία - Μαύρος ήλιος [1963, Θάνου Σοφού]
TTITLE8=Γαβαλάς Πάνος-Κούρτη Ρία-Τρίο Μορένο - Αλί και τρισαλί [1965, Π. Γαβαλ
TTITLE8=ά]
TTITLE9=Γαβαλάς Πάνος-Κούρτη Ρία - Νύχτωσε [1966, Θάνου Σοφού]
TTITLE10=Γαβαλάς Πάνος-Κούρτη Ρία - Και για τους δυό μας είναι τιμή [1964, Ν. 
TTITLE10=Δαλέζιου]
TTITLE11=Γαβαλάς Πάνος-Κούρτη Ρία - Όταν με χάσεις [1964, Γ. Λαύκα]
TTITLE12=Γαβαλάς Πάνος-Κούρτη Ρία - Την καταράστηκα [1966, Βασ. Βασιλειάδη]
TTITLE13=Γαβαλάς Πάνος - Καρδιά μου πονεμένη [1963, Π. Γαβαλά]
TTITLE14=Γαβαλάς Πάνος-Κούρτη Ρία - Θα φύγω μακρυά σου [1963, Π. Γαβαλά-Σ. Κορ
TTITLE14=σαβίδη]
TTITLE15=Γαβαλάς Πάνος-Κούρτη Ρία - Χωρίς να είμαι ένοχος [1964, Χρ. Κολοκοτρώ
TTITLE15=νη]
TTITLE16=Γαβαλάς Πάνος-Γκίκα Βούλα - Φίλα με, φίλα με [1963, Π. Γαβαλά]
TTITLE17=Γαβαλάς Πάνος-Κούρτη Ρία - Γιατί με βασανίζεις τον φουκαρά [1966, Π. 
TTITLE17=Γαβαλά-Αναστ. Κουλούρη]
TTITLE18=Γαβαλάς Πάνος-Κούρτη Ρία - Δεν μπορώ να συνηθίσω [1966, Μηνά Πορτοκάλ
TTITLE18=η]
TTITLE19=Γαβαλάς Πάνος-Κούρτη Ρία - Μ' έκανες σκλάβο σου [1965, Γιάννη Καραμπε
TTITLE19=σίνη]
EXTD=
EXTT0=
EXTT1=
EXTT2=
EXTT3=
EXTT4=
EXTT5=
EXTT6=
EXTT7=
EXTT8=
EXTT9=
EXTT10=
EXTT11=
EXTT12=
EXTT13=
EXTT14=
EXTT15=
EXTT16=
EXTT17=
EXTT18=
EXTT19=
PLAYORDER=
